<svg width="49" height="51" viewBox="0 0 49 51" fill="black" xmlns="http://www.w3.org/2000/svg">
<path d="M37.3898 5.89696C37.0656 5.67698 36.624 5.7275 36.3584 6.0208C36.0944 6.31247 36.083 6.75568 36.3323 7.06201C38.7569 9.9999 40.0947 13.7216 40.0947 17.541C40.0947 19.9183 39.9806 22.6037 38.5972 24.4058C36.3388 27.347 33.9761 27.9629 32.3891 27.9629C30.3865 27.9629 28.8662 27.0097 28.1753 26.195C23.463 20.6483 32.0208 11.0379 32.1088 10.9433C32.306 10.7217 32.3662 10.4089 32.262 10.1319L31.444 7.95169C31.3462 7.69913 31.1327 7.51011 30.8671 7.45308C30.6048 7.39931 30.3294 7.47915 30.1404 7.66817L27.4828 10.3258L29.008 4.74494C29.0829 4.47119 29.0047 4.17626 28.8043 3.97421L25.0647 0.234637C24.7551 -0.0749572 24.2516 -0.0749572 23.942 0.234637L20.2024 3.97421C20.0004 4.17626 19.9222 4.46957 19.9988 4.74494L21.5207 10.3274L18.8647 7.66979C18.674 7.48078 18.4003 7.39931 18.1363 7.45471C17.8707 7.51174 17.6556 7.6975 17.5595 7.95332L16.7399 10.1335C16.6356 10.4105 16.6959 10.7217 16.8947 10.945C16.981 11.0427 25.5389 20.65 20.8298 26.1966C20.1373 27.0113 18.6186 27.9645 16.616 27.9645C15.0289 27.9645 12.6663 27.3486 10.4078 24.4075C9.02444 22.6069 8.90875 19.92 8.90875 17.5426C8.90875 13.7232 10.2449 10.0015 12.6695 7.06364C12.9204 6.75731 12.909 6.31247 12.6451 6.02243C12.3795 5.72913 11.9379 5.67698 11.612 5.89696C4.78951 10.4969 0.717529 18.1471 0.717529 26.3644C0.717529 39.6917 11.1525 50.5128 24.4716 51C24.4814 51 24.4911 51 24.5009 51C24.5107 51 24.5205 51 24.5302 51C37.8493 50.5128 48.2827 39.6917 48.2827 26.3644C48.2827 18.1471 44.209 10.4969 37.3898 5.89696Z" fill="black"/>
</svg>
